<svg xmlns="http://www.w3.org/2000/svg" xmlns:xlink="http://www.w3.org/1999/xlink" width="144" height="144" viewBox="0 0 144 144">
  <defs>
    <clipPath id="clip-path">
      <rect id="Rectangle_58" data-name="Rectangle 58" width="144" height="144" fill="#fff"/>
    </clipPath>
    <clipPath id="clip-audio-hover">
      <rect width="144" height="144"/>
    </clipPath>
  </defs>
  <g id="audio-hover" clip-path="url(#clip-audio-hover)">
    <g id="audio" clip-path="url(#clip-path)">
      <g id="Group_210" data-name="Group 210" transform="translate(-1.192 3.32)">
        <path id="Path_495" data-name="Path 495" d="M97.592,56.567V56.56q-.041-.763-.679-7.851v.021c-.051-.59-.088-1.115-.109-1.571a4.059,4.059,0,1,0-8.108.408q.042.825.13,1.849v.024q.623,6.942.658,7.571v.006a3.654,3.654,0,0,1,0-.409,3.9,3.9,0,0,0,0,.543q.25,3.5.366,6.408a4.058,4.058,0,1,0,8.11-.32Q97.851,60.192,97.592,56.567Z" transform="translate(43.253 14.827)" fill="#fff"/>
        <path id="Path_496" data-name="Path 496" d="M52.958,40.963a4.057,4.057,0,0,0-4.492,3.569q-.258,2.228-.434,6.858v-.022q-.111,2.49-.188,9.185h0c-.011,1.122.014,1.978.07,2.582.016.231.044.506.084.839v.007c.121,1,.222,1.767.3,2.295a4.058,4.058,0,0,0,8.027-1.2q-.1-.685-.274-2.083V63c-.028-.225-.047-.394-.053-.513l0-.029h0V62.4c-.03-.319-.042-.9-.033-1.757q.073-6.553.179-8.909v-.028q.167-4.332.385-6.25a4.057,4.057,0,0,0-3.573-4.493Z" transform="translate(22.092 13.6)" fill="#fff"/>
        <path id="Path_497" data-name="Path 497" d="M47.888,55.571h0v-.032Z" transform="translate(22.115 21.162)" fill="#fff"/>
        <path id="Path_498" data-name="Path 498" d="M5.662,47.58v-.013Z" transform="translate(0.243 17.035)" fill="#fff"/>
        <path id="Path_499" data-name="Path 499" d="M14.438,56.424v.057q-.024-1.014-.288-4.753h0c-.047-.663-.1-1.236-.15-1.757,0-.039-.006-.08-.009-.12h0q-.06-.7-.453-3.279v-.037l.025.178c-.011-.1-.027-.215-.048-.338h0c-.049-.282-.149-.758-.3-1.423a4.059,4.059,0,1,0-7.915,1.8q.179.775.211.978c0-.03-.009-.07-.014-.116l.024.178c.235,1.545.364,2.462.391,2.759a.1.1,0,0,0,0-.019v.028l.012.139c.049.445.093.975.137,1.588h0q.25,3.56.271,4.4v.057q.1,2.815.079,3.607V60.3q-.017.409-.056.795l.007-.055c-.149,1.322-.234,2.161-.262,2.523V63.5q-.056.6-.118,1.648a4.057,4.057,0,1,0,8.1.48q.055-.918.1-1.382l.007-.07q.028-.394.234-2.234v-.053c.039-.4.07-.811.086-1.23V60.61q.034-1.07-.079-4.158v-.028Z" transform="translate(0 14.046)" fill="#fff"/>
        <path id="Path_500" data-name="Path 500" d="M20.844,65.306a.383.383,0,0,1,0-.052v.031Z" transform="translate(8.107 26.197)" fill="#fff"/>
        <path id="Path_501" data-name="Path 501" d="M19.92,31.037a4.058,4.058,0,0,0-4.059,4.056V74.776q0,.7-.042,1.607c-.066,1.184-.129,2.588-.19,4.22v-.067q-.118,1.8-.13,2.212v.061a4.058,4.058,0,1,0,8.113.181c.008-.2.047-.838.117-1.924v-.015a.094.094,0,0,0,0-.018l.007-.122q.09-2.413.185-4.126v-.046c.03-.716.049-1.359.051-1.93V35.093A4.056,4.056,0,0,0,19.92,31.037Z" transform="translate(5.339 8.473)" fill="#fff"/>
        <path id="Path_502" data-name="Path 502" d="M31.264,16.053a4.058,4.058,0,0,0-4.779,3.178c-.024.118-.044.243-.065.38q-.247,1.732-.281,9.84v-.014q-.056,6.035-.062,34.547V63.95q-.227,9.806-.345,12.94v.061q-.052,2.164-.339,7.528v.058q-.083,2.1-.139,5.107-.077,4.129-.107,10.23v.006q-.056,15.5-.025,16.579v.112a4.059,4.059,0,1,0,8.105-.449v.1q-.024-.943.03-16.317v.007q.028-6.059.1-10.12.052-2.891.13-4.9.3-5.461.347-7.746V77.2q.122-3.193.348-13.063v-.153q.007-28.472.062-34.476v-.026q.034-7.551.2-8.734a.482.482,0,0,1-.013.076,4.061,4.061,0,0,0-3.167-4.771Z" transform="translate(10.315 0.669)" fill="#fff"/>
        <path id="Path_503" data-name="Path 503" d="M40.539,32.113a4.06,4.06,0,0,0-4.061,4.056V46.438q-.073,3.631-.116,9.047c-.052,1.7-.1,4.253-.144,7.682V63.1l-.146,5.251c-.133,1.684-.311,4.449-.531,8.321V76.7q-.126,2.428-.174,6.239v-.02c0,.1-.019.313-.049.646a4.058,4.058,0,1,0,8.084.716c.042-.479.067-.848.077-1.1v-.129q.049-3.66.165-5.933v.018q.334-5.839.528-8.256l.012-.211.148-5.338v-.064q.067-5.134.144-7.6v-.1q.042-5.381.114-8.968V36.173a4.06,4.06,0,0,0-4.051-4.06Z" transform="translate(15.594 9.03)" fill="#fff"/>
        <path id="Path_504" data-name="Path 504" d="M62.519,30.606a4.058,4.058,0,0,0-4.043,4.072c0,1.442,0,2.439-.017,3.012q-.193,3.618-.236,5.2v-.035q-.066,1.94-.138,5.936-.2,3.956-.3,8.78v-.009q-.111,5.11-.125,18.186v-.092l-.051,2.1v.009q-.031,1.434-.3,5.58V83.34a3.8,3.8,0,0,1-.07.461,4.058,4.058,0,1,0,7.945,1.662,11.9,11.9,0,0,0,.223-1.58v-.009q.278-4.318.315-5.925v.006l.049-2.1v-.093q.01-12.99.123-18.013V57.74q.093-4.759.29-8.634v-.13q.07-3.951.137-5.83v-.035q.038-1.468.229-4.993l0-.088c.021-.659.027-1.783.021-3.379a4.057,4.057,0,0,0-4.057-4.045Z" transform="translate(26.919 8.25)" fill="#fff"/>
        <path id="Path_505" data-name="Path 505" d="M68.567,21.844v-.03Z" transform="translate(32.828 3.695)" fill="#fff"/>
        <path id="Path_506" data-name="Path 506" d="M75.936,14.869a4.063,4.063,0,0,0-5.1,2.644,38.764,38.764,0,0,0-1.175,8.012q-.238,2.982-.488,14.276-.569,8.126-.657,12.384-1.565,19.968-1.794,27.177v-.034q-.247,6.053-.281,16.077v.022c0,.59.007,1.113.019,1.573v.012q.338,11.667.339,13.278v.076q.091,4.681-.016,7.323a4.057,4.057,0,0,0,8.108.328q.118-2.888.021-7.806v.074q0-1.719-.343-13.509v.012c-.01-.387-.014-.842-.016-1.368q.034-9.866.274-15.762v-.037q.223-7.035,1.781-26.891l.012-.239q.08-4.1.649-12.231l.009-.195q.248-11.159.466-13.91v-.03a32.538,32.538,0,0,1,.821-6.16,4.062,4.062,0,0,0-2.629-5.1Z" transform="translate(31.73)" fill="#fff"/>
        <path id="Path_507" data-name="Path 507" d="M85.544,67.686v.055q-.059-3.624-.1-5.162v-.021q-.163-5.677-.2-8.542v-.079q-.016-.643.051-6.26.021-1.572.053-3.253v.028q.125-4.668.142-6.229l-.079.751a4.342,4.342,0,0,0,.079-.758h0q.01-.379.007-2.908a4.058,4.058,0,1,0-8.117.007q0,2.426,0,2.725a3.744,3.744,0,0,1,.074-.654,4.266,4.266,0,0,0-.079.752q-.014,1.5-.137,6.1v.027c-.023,1.141-.039,2.243-.053,3.312q-.069,5.835-.048,6.606v.087h0l0-.145q.042,2.928.209,8.663V62.77q.038,1.519.1,5.1v.056q.088,2.9.153,6.394v.136q.247,4.665.322,7.185a15.806,15.806,0,0,1-.033,1.582,4.06,4.06,0,0,0,8.1.56c.056-.809.072-1.6.049-2.388q-.08-2.6-.326-7.31Q85.629,70.6,85.544,67.686Z" transform="translate(37.259 8.584)" fill="#fff"/>
        <path id="Path_508" data-name="Path 508" d="M77.286,35.725Z" transform="translate(37.344 10.9)" fill="#fff"/>
      </g>
    </g>
  </g>
</svg>
