<svg xmlns="http://www.w3.org/2000/svg" xmlns:xlink="http://www.w3.org/1999/xlink" width="144" height="144" viewBox="0 0 144 144">
  <defs>
    <clipPath id="clip-eye">
      <rect width="144" height="144"/>
    </clipPath>
  </defs>
  <g id="eye" clip-path="url(#clip-eye)">
    <path id="Icon_awesome-eye" data-name="Icon awesome-eye" d="M131.169,45.144C118.744,20.9,94.147,4.5,65.983,4.5S13.215,20.913.8,45.146a7.412,7.412,0,0,0,0,6.688C13.222,76.076,37.819,92.477,65.983,92.477s52.768-16.413,65.186-40.646A7.412,7.412,0,0,0,131.169,45.144ZM65.983,81.48A32.992,32.992,0,1,1,98.974,48.489,32.991,32.991,0,0,1,65.983,81.48Zm0-54.986a21.836,21.836,0,0,0-5.8.868A10.963,10.963,0,0,1,44.857,42.69a21.944,21.944,0,1,0,21.126-16.2Z" transform="translate(6 23.5)" fill="#fff"/>
  </g>
</svg>
