<svg xmlns="http://www.w3.org/2000/svg" xmlns:xlink="http://www.w3.org/1999/xlink" width="55" height="55" viewBox="0 0 55 55">
  <defs>
    <clipPath id="clip-filter">
      <rect width="55" height="55"/>
    </clipPath>
  </defs>
  <g id="filter" clip-path="url(#clip-filter)">
    <g id="Layer_2" data-name="Layer 2" transform="translate(-22.249 -22)">
      <path id="Path_495" data-name="Path 495" d="M39,53.2a8.17,8.17,0,0,0-5.51-4.59V28a2,2,0,0,0-4,0V48.6a9.27,9.27,0,0,0-1.4.48,8.24,8.24,0,0,0,1.4,15.5V72a2,2,0,0,0,4,0V64.59A8.223,8.223,0,0,0,39,53.2Zm-3.53,4.9a4.25,4.25,0,1,1-5.73-5.37,4.14,4.14,0,0,1,1.74-.38,4.26,4.26,0,0,1,3.88,2.5,4.21,4.21,0,0,1,.13,3.249Z" fill="#fff"/>
      <path id="Path_496" data-name="Path 496" d="M76,53.2a8.17,8.17,0,0,0-5.51-4.59V28a2,2,0,0,0-4,0V48.6a9.27,9.27,0,0,0-1.4.48,8.24,8.24,0,0,0,1.4,15.5V72a2,2,0,0,0,4,0V64.59A8.223,8.223,0,0,0,76,53.2Zm-3.53,4.9a4.25,4.25,0,1,1-5.73-5.37,4.17,4.17,0,0,1,1.74-.38,4.26,4.26,0,0,1,3.88,2.5,4.21,4.21,0,0,1,.11,3.249Z" fill="#fff"/>
      <path id="Path_497" data-name="Path 497" d="M52.9,36c-.3-.11-.6-.2-.91-.28V28a2,2,0,0,0-4,0v7.75a8.251,8.251,0,0,0-.91,15.72c.3.11.61.2.91.28V72a2,2,0,0,0,4,0V51.74a7.709,7.709,0,0,0,1.4-.48A8.24,8.24,0,0,0,52.9,36ZM54,45.25a4.25,4.25,0,1,1-3.98-5.75,4.32,4.32,0,0,1,1.5.27A4.22,4.22,0,0,1,53.86,42h0A4.21,4.21,0,0,1,54,45.25Z" fill="#fff"/>
    </g>
  </g>
</svg>
