<svg xmlns="http://www.w3.org/2000/svg" xmlns:xlink="http://www.w3.org/1999/xlink" width="144" height="144" viewBox="0 0 144 144">
  <defs>
    <clipPath id="clip-fire">
      <rect width="144" height="144"/>
    </clipPath>
  </defs>
  <g id="fire" clip-path="url(#clip-fire)">
    <path id="Icon_metro-fire" data-name="Icon metro-fire" d="M39.69,145.079c-9.541-19.852-4.46-31.227,2.873-41.945a66.823,66.823,0,0,0,10.1-23.355s6.312,8.206,3.787,21.04C67.6,88.406,69.706,68.627,68.023,61.053,93.23,78.669,104,116.811,89.484,145.079,166.7,101.389,108.692,36.014,98.593,28.65c3.367,7.364,4,19.83-2.8,25.88-11.513-43.655-39.978-52.6-39.978-52.6C59.186,24.441,43.615,49.06,28.6,67.455c-.528-8.977-1.088-15.172-5.809-23.763C21.733,60,9.27,73.294,5.895,89.633,1.323,111.761,9.32,127.962,39.69,145.079Z" transform="translate(5.299 -1.928)" fill="#fff"/>
  </g>
</svg>
