<svg xmlns="http://www.w3.org/2000/svg" xmlns:xlink="http://www.w3.org/1999/xlink" width="61" height="28" viewBox="0 0 61 28">
  <defs>
    <clipPath id="clip-left">
      <rect width="61" height="28"/>
    </clipPath>
  </defs>
  <g id="left" clip-path="url(#clip-left)">
    <g id="Group_210" data-name="Group 210" transform="translate(-5.057 -4.943)">
      <path id="Icon_ionic-ios-arrow-down" data-name="Icon ionic-ios-arrow-down" d="M18,20.679l8.93-8.937a1.681,1.681,0,0,1,2.384,0,1.7,1.7,0,0,1,0,2.391L19.2,24.258a1.685,1.685,0,0,1-2.327.049L6.68,14.14a1.688,1.688,0,0,1,2.384-2.391Z" transform="translate(52.806 0.756) rotate(90)" fill="#8a8d97"/>
      <path id="Icon_ionic-ios-arrow-down-2" data-name="Icon ionic-ios-arrow-down" d="M18,20.679l8.93-8.937a1.681,1.681,0,0,1,2.384,0,1.7,1.7,0,0,1,0,2.391L19.2,24.258a1.685,1.685,0,0,1-2.327.049L6.68,14.14a1.688,1.688,0,0,1,2.384-2.391Z" transform="translate(73.806 0.756) rotate(90)" fill="#868997"/>
      <path id="Icon_ionic-ios-arrow-down-3" data-name="Icon ionic-ios-arrow-down" d="M18,20.679l8.93-8.937a1.681,1.681,0,0,1,2.384,0,1.7,1.7,0,0,1,0,2.391L19.2,24.258a1.685,1.685,0,0,1-2.327.049L6.68,14.14a1.688,1.688,0,0,1,2.384-2.391Z" transform="translate(31.806 0.756) rotate(90)" fill="#a1a1a1"/>
    </g>
  </g>
</svg>
