<svg xmlns="http://www.w3.org/2000/svg" xmlns:xlink="http://www.w3.org/1999/xlink" width="61" height="28" viewBox="0 0 61 28">
  <defs>
    <clipPath id="clip-right">
      <rect width="61" height="28"/>
    </clipPath>
  </defs>
  <g id="right" clip-path="url(#clip-right)">
    <g id="Group_210" data-name="Group 210" transform="translate(2 2)">
      <path id="Icon_ionic-ios-arrow-down" data-name="Icon ionic-ios-arrow-down" d="M11.812,4.071l8.93,8.937a1.681,1.681,0,0,0,2.384,0,1.7,1.7,0,0,0,0-2.391L13.008.492A1.685,1.685,0,0,0,10.68.442L.492,10.61A1.688,1.688,0,0,0,2.876,13Z" transform="translate(34.503 0) rotate(90)" fill="#8a8d97"/>
      <path id="Icon_ionic-ios-arrow-down-2" data-name="Icon ionic-ios-arrow-down" d="M11.812,4.071l8.93,8.937a1.681,1.681,0,0,0,2.384,0,1.7,1.7,0,0,0,0-2.391L13.008.492A1.685,1.685,0,0,0,10.68.442L.492,10.61A1.688,1.688,0,0,0,2.876,13Z" transform="translate(13.503 0) rotate(90)" fill="#868997"/>
      <path id="Icon_ionic-ios-arrow-down-3" data-name="Icon ionic-ios-arrow-down" d="M11.812,4.071l8.93,8.937a1.681,1.681,0,0,0,2.384,0,1.7,1.7,0,0,0,0-2.391L13.008.492A1.685,1.685,0,0,0,10.68.442L.492,10.61A1.688,1.688,0,0,0,2.876,13Z" transform="translate(55.503 0) rotate(90)" fill="#a1a1a1"/>
    </g>
  </g>
</svg>
