<svg xmlns="http://www.w3.org/2000/svg" xmlns:xlink="http://www.w3.org/1999/xlink" width="144" height="144" viewBox="0 0 144 144">
  <defs>
    <clipPath id="clip-time">
      <rect width="144" height="144"/>
    </clipPath>
  </defs>
  <g id="time" clip-path="url(#clip-time)">
    <g id="Icon_ionic-ios-timer" data-name="Icon ionic-ios-timer" transform="translate(2.317 2.304)">
      <path id="Path_493" data-name="Path 493" d="M69.758,135.579A65.822,65.822,0,0,1,24.079,22.367a5.283,5.283,0,0,1,7.339,7.6,55.239,55.239,0,1,0,43.606-15.2v20.6a5.3,5.3,0,1,1-10.6,0V9.236a5.3,5.3,0,0,1,5.3-5.3,65.821,65.821,0,0,1,.033,131.642Z" transform="translate(0 0)" fill="#666871"/>
      <path id="Path_494" data-name="Path 494" d="M16.475,11.869,49.221,35.4A9.909,9.909,0,1,1,37.7,51.526a9.568,9.568,0,0,1-2.3-2.3L11.867,16.476a3.3,3.3,0,0,1,4.607-4.607Z" transform="translate(26.922 26.921)" fill="#666871"/>
    </g>
  </g>
</svg>
